<?xml version="1.0" encoding="utf-8"?>
<!-- Generator: Adobe Illustrator 25.0.1, SVG Export Plug-In . SVG Version: 6.00 Build 0)  -->
<svg version="1.1" id="Capa_1" xmlns="http://www.w3.org/2000/svg" xmlns:xlink="http://www.w3.org/1999/xlink" x="0px" y="0px"
	 viewBox="0 0 595.3 841.9" style="enable-background:new 0 0 595.3 841.9;" xml:space="preserve">
<style type="text/css">
	.st0{fill:#FAFAFA;}
</style>
<g>
	<path class="st0" d="M168.3,301.8h-4.8v53.2h4.8v4.8H157V297h11.3V301.8z"/>
	<path class="st0" d="M202.7,343.8c-1.1,1.7-2.8,3.3-5.2,4.6c-2.4,1.3-5.5,2-9.2,2c-4.8,0-8.7-1.5-11.6-4.4
		c-2.9-2.9-4.4-7.1-4.4-12.5v-13.6c0-5.3,1.4-9.5,4.3-12.4c2.8-2.9,6.6-4.4,11.3-4.4c4.7,0,8.2,1.2,10.8,3.6s3.7,5.7,3.7,9.9
		l-0.1,0.2h-6c0-2.8-0.7-4.9-2.1-6.4c-1.4-1.5-3.4-2.3-6.1-2.3c-2.9,0-5.2,1-6.8,3c-1.7,2-2.5,4.9-2.5,8.8v13.7c0,3.9,0.9,6.9,2.6,9
		c1.7,2.1,4,3.1,7,3.1c2.2,0,3.9-0.3,5.2-1c1.3-0.7,2.2-1.5,2.8-2.5v-10.7h-8.5v-4.7h14.9V343.8z"/>
	<path class="st0" d="M217.7,344.9h18.6v4.9h-25v-46h6.4V344.9z"/>
	<path class="st0" d="M271.3,333.2c0,5.5-1.5,9.7-4.4,12.7c-2.9,3-6.9,4.6-11.8,4.6c-4.9,0-8.8-1.5-11.7-4.6
		c-2.9-3-4.3-7.3-4.3-12.7v-12.6c0-5.4,1.4-9.7,4.3-12.8c2.9-3.1,6.8-4.6,11.6-4.6c4.9,0,8.9,1.5,11.9,4.6s4.4,7.3,4.4,12.8V333.2z
		 M264.9,320.4c0-4-0.9-7-2.6-9.1c-1.7-2.1-4.2-3.1-7.3-3.1c-3.1,0-5.4,1-7.1,3.1c-1.7,2.1-2.5,5.1-2.5,9.1v12.7
		c0,4,0.8,7.1,2.5,9.2c1.7,2.1,4,3.1,7.1,3.1c3.2,0,5.6-1,7.3-3.1c1.7-2.1,2.6-5.1,2.6-9.2V320.4z"/>
	<path class="st0" d="M307.6,336l0.1,0.2c0.1,4.5-1.2,8-3.8,10.5c-2.6,2.5-6.2,3.8-10.8,3.8c-4.7,0-8.5-1.5-11.3-4.5
		c-2.8-3-4.2-7.3-4.2-12.7v-12.8c0-5.4,1.4-9.7,4.1-12.7s6.5-4.6,11.1-4.6c4.7,0,8.4,1.2,11,3.6c2.6,2.4,3.9,6,3.8,10.7l-0.1,0.2
		h-6.2c0-3.3-0.7-5.7-2.1-7.2c-1.4-1.5-3.6-2.3-6.4-2.3c-2.8,0-5,1.1-6.5,3.2c-1.5,2.1-2.3,5.2-2.3,9.1v12.9c0,4,0.8,7.1,2.4,9.2
		c1.6,2.1,3.8,3.2,6.7,3.2c2.8,0,4.9-0.8,6.3-2.3s2.1-4,2.1-7.3H307.6z"/>
	<path class="st0" d="M335.6,338.2c0-2.1-0.6-3.8-1.8-5.2c-1.2-1.4-3.3-2.6-6.3-3.7c-4.3-1.3-7.6-3.1-9.9-5.2
		c-2.3-2.1-3.5-5-3.5-8.5c0-3.6,1.3-6.6,3.8-9c2.6-2.3,5.8-3.5,9.8-3.5c4.3,0,7.7,1.3,10.2,3.9c2.6,2.6,3.8,5.9,3.7,9.8l-0.1,0.2
		h-6.2c0-2.7-0.7-4.9-2.1-6.5c-1.4-1.7-3.3-2.5-5.7-2.5c-2.3,0-4,0.7-5.3,2.1c-1.3,1.4-1.9,3.2-1.9,5.4c0,2,0.7,3.7,2,5
		c1.3,1.3,3.6,2.5,6.7,3.7c4.2,1.4,7.4,3.2,9.6,5.4c2.2,2.2,3.3,5.1,3.3,8.6c0,3.7-1.3,6.7-3.9,9c-2.6,2.2-6,3.3-10.2,3.3
		c-4,0-7.6-1.2-10.5-3.6c-3-2.4-4.4-5.8-4.3-10.3l0.1-0.2h6.2c0,3.1,0.8,5.4,2.5,7c1.7,1.5,3.7,2.3,6.1,2.3c2.4,0,4.2-0.7,5.6-2
		C334.9,342.3,335.6,340.5,335.6,338.2z"/>
	<path class="st0" d="M371.2,328.4h-15.6v16.5H374v4.9h-24.8v-46h24.6v4.9h-18.2v14.8h15.6V328.4z"/>
	<path class="st0" d="M376.5,297h11.3v62.9h-11.3v-4.8h4.8v-53.2h-4.8V297z"/>
</g>
<g>
	<path class="st0" d="M140.5,374.5c0-0.5-0.1-0.8-0.4-1.1s-0.7-0.6-1.4-0.8c-0.9-0.3-1.7-0.7-2.2-1.1s-0.8-1.1-0.8-1.8
		c0-0.8,0.3-1.4,0.8-1.9s1.3-0.8,2.1-0.8c0.9,0,1.7,0.3,2.2,0.8s0.8,1.3,0.8,2.1l0,0h-1.3c0-0.6-0.2-1.1-0.5-1.4s-0.7-0.5-1.2-0.5
		c-0.5,0-0.9,0.2-1.1,0.5s-0.4,0.7-0.4,1.2c0,0.4,0.1,0.8,0.4,1.1s0.8,0.5,1.4,0.8c0.9,0.3,1.6,0.7,2.1,1.2s0.7,1.1,0.7,1.9
		c0,0.8-0.3,1.5-0.8,1.9s-1.3,0.7-2.2,0.7c-0.9,0-1.6-0.3-2.3-0.8s-1-1.3-0.9-2.2l0,0h1.3c0,0.7,0.2,1.2,0.5,1.5s0.8,0.5,1.3,0.5
		c0.5,0,0.9-0.1,1.2-0.4S140.5,375,140.5,374.5z"/>
	<path class="st0" d="M144.8,367.7h-1.4v-1.3h1.4V367.7z M144.8,377h-1.4v-7.4h1.4V377z"/>
	<path class="st0" d="M150,375.1c0-0.3-0.1-0.5-0.3-0.7s-0.6-0.4-1.1-0.7c-0.8-0.3-1.3-0.6-1.7-0.9s-0.6-0.8-0.6-1.3
		c0-0.6,0.2-1.1,0.7-1.5s1.1-0.6,1.8-0.6c0.8,0,1.4,0.2,1.8,0.7s0.7,1,0.7,1.6l0,0h-1.3c0-0.4-0.1-0.7-0.3-0.9s-0.5-0.4-0.8-0.4
		s-0.6,0.1-0.8,0.3s-0.3,0.4-0.3,0.7c0,0.3,0.1,0.5,0.3,0.7s0.5,0.4,1.1,0.6c0.8,0.3,1.4,0.6,1.7,1s0.6,0.8,0.6,1.4
		c0,0.6-0.2,1.1-0.7,1.5s-1.1,0.6-1.9,0.6c-0.8,0-1.5-0.2-2-0.7s-0.7-1-0.7-1.6l0,0h1.3c0,0.5,0.2,0.8,0.4,1s0.6,0.3,0.9,0.3
		c0.4,0,0.7-0.1,0.9-0.3S150,375.4,150,375.1z"/>
	<path class="st0" d="M154.4,367.8v1.8h1.2v1h-1.2v4.4c0,0.4,0.1,0.7,0.2,0.8s0.3,0.2,0.5,0.2c0.1,0,0.2,0,0.2,0s0.1,0,0.2-0.1
		l0.1,1c-0.1,0.1-0.3,0.1-0.4,0.2s-0.3,0.1-0.5,0.1c-0.5,0-0.9-0.2-1.2-0.5s-0.4-0.9-0.4-1.6v-4.4h-1v-1h1v-1.8H154.4z"/>
	<path class="st0" d="M159.5,377.1c-0.9,0-1.6-0.3-2.2-1s-0.8-1.6-0.8-2.6v-0.3c0-1.1,0.3-2,0.8-2.7s1.2-1,2-1
		c0.8,0,1.5,0.3,1.9,0.9s0.7,1.4,0.7,2.4v0.8h-4c0,0.8,0.1,1.4,0.4,1.8s0.7,0.7,1.2,0.7c0.4,0,0.7-0.1,1-0.2s0.6-0.3,0.8-0.5
		l0.5,0.9c-0.2,0.3-0.6,0.5-1,0.6S160,377.1,159.5,377.1z M159.4,370.5c-0.4,0-0.7,0.2-1,0.6s-0.4,0.9-0.4,1.5h2.6v-0.2
		c0-0.6-0.1-1-0.3-1.4S159.8,370.5,159.4,370.5z"/>
	<path class="st0" d="M164.5,369.6l0.1,1c0.2-0.4,0.5-0.6,0.8-0.8s0.7-0.3,1.1-0.3c0.4,0,0.8,0.1,1.1,0.3s0.5,0.6,0.7,1
		c0.2-0.4,0.5-0.8,0.8-1s0.7-0.4,1.2-0.4c0.6,0,1.1,0.3,1.5,0.8s0.6,1.3,0.6,2.4v4.4h-1.4v-4.4c0-0.8-0.1-1.3-0.3-1.6
		s-0.5-0.5-0.9-0.5c-0.3,0-0.6,0.1-0.8,0.4s-0.4,0.5-0.5,0.9c0,0.1,0,0.2,0,0.3s0,0.2,0,0.3v4.6H167v-4.4c0-0.7-0.1-1.3-0.3-1.6
		s-0.5-0.5-0.9-0.5c-0.3,0-0.6,0.1-0.8,0.2s-0.4,0.4-0.5,0.7v5.5h-1.4v-7.4H164.5z"/>
	<path class="st0" d="M177.6,377c-0.1-0.2-0.1-0.4-0.1-0.6s-0.1-0.3-0.1-0.5c-0.2,0.4-0.5,0.7-0.8,0.9s-0.7,0.4-1.1,0.4
		c-0.7,0-1.2-0.2-1.5-0.6s-0.5-0.9-0.5-1.6c0-0.7,0.2-1.2,0.7-1.6s1.2-0.6,2-0.6h1.1v-0.8c0-0.5-0.1-0.8-0.3-1.1s-0.5-0.4-0.9-0.4
		c-0.3,0-0.6,0.1-0.8,0.3s-0.3,0.5-0.3,0.8l-1.3,0l0,0c0-0.6,0.2-1.1,0.7-1.5s1.1-0.7,1.9-0.7c0.7,0,1.3,0.2,1.8,0.6s0.7,1,0.7,1.8
		v3.4c0,0.3,0,0.6,0.1,0.8s0.1,0.5,0.2,0.8H177.6z M175.8,376.1c0.4,0,0.7-0.1,1-0.4s0.5-0.5,0.6-0.9v-1.3h-1.2
		c-0.4,0-0.8,0.1-1,0.4s-0.4,0.6-0.4,1c0,0.3,0.1,0.6,0.2,0.8S175.5,376.1,175.8,376.1z"/>
	<path class="st0" d="M190,375.7c-0.2,0.4-0.6,0.7-1.1,1s-1.2,0.4-2,0.4c-1,0-1.9-0.3-2.5-1s-1-1.5-1-2.7v-3c0-1.2,0.3-2,0.9-2.7
		s1.4-1,2.5-1c1,0,1.8,0.3,2.3,0.8s0.8,1.2,0.8,2.1l0,0h-1.3c0-0.6-0.2-1.1-0.5-1.4s-0.7-0.5-1.3-0.5c-0.6,0-1.1,0.2-1.5,0.7
		s-0.5,1.1-0.5,1.9v3c0,0.8,0.2,1.5,0.6,1.9s0.9,0.7,1.5,0.7c0.5,0,0.8-0.1,1.1-0.2s0.5-0.3,0.6-0.5V373h-1.8v-1h3.2V375.7z"/>
	<path class="st0" d="M194.3,377.1c-0.9,0-1.6-0.3-2.2-1s-0.8-1.6-0.8-2.6v-0.3c0-1.1,0.3-2,0.8-2.7s1.2-1,2-1
		c0.8,0,1.5,0.3,1.9,0.9s0.7,1.4,0.7,2.4v0.8h-4c0,0.8,0.1,1.4,0.4,1.8s0.7,0.7,1.2,0.7c0.4,0,0.7-0.1,1-0.2s0.6-0.3,0.8-0.5
		l0.5,0.9c-0.2,0.3-0.6,0.5-1,0.6S194.8,377.1,194.3,377.1z M194.2,370.5c-0.4,0-0.7,0.2-1,0.6s-0.4,0.9-0.4,1.5h2.6v-0.2
		c0-0.6-0.1-1-0.3-1.4S194.6,370.5,194.2,370.5z"/>
	<path class="st0" d="M197.7,373.2c0-1.1,0.3-2,0.8-2.7s1.2-1.1,2.1-1.1s1.6,0.4,2.1,1.1s0.8,1.6,0.8,2.7v0.2c0,1.1-0.3,2-0.8,2.7
		s-1.2,1-2.1,1c-0.9,0-1.6-0.3-2.2-1s-0.8-1.6-0.8-2.7V373.2z M199.1,373.4c0,0.8,0.1,1.4,0.4,1.9s0.6,0.8,1.2,0.8
		c0.5,0,0.9-0.3,1.1-0.8s0.4-1.1,0.4-1.9v-0.2c0-0.8-0.1-1.4-0.4-1.9s-0.6-0.8-1.1-0.8s-0.9,0.3-1.1,0.8s-0.4,1.1-0.4,1.9V373.4z"/>
	<path class="st0" d="M206.4,377H205v-10.7h1.4V377z"/>
	<path class="st0" d="M207.8,373.2c0-1.1,0.3-2,0.8-2.7s1.2-1.1,2.1-1.1s1.6,0.4,2.1,1.1s0.8,1.6,0.8,2.7v0.2c0,1.1-0.3,2-0.8,2.7
		s-1.2,1-2.1,1c-0.9,0-1.6-0.3-2.2-1s-0.8-1.6-0.8-2.7V373.2z M209.2,373.4c0,0.8,0.1,1.4,0.4,1.9s0.6,0.8,1.2,0.8
		c0.5,0,0.9-0.3,1.1-0.8s0.4-1.1,0.4-1.9v-0.2c0-0.8-0.1-1.4-0.4-1.9s-0.6-0.8-1.1-0.8s-0.9,0.3-1.1,0.8s-0.4,1.1-0.4,1.9V373.4z"/>
	<path class="st0" d="M217.6,376.1c0.3,0,0.6-0.1,0.9-0.4s0.3-0.6,0.3-1.1h1.3l0,0c0,0.7-0.2,1.3-0.7,1.8s-1.1,0.7-1.8,0.7
		c-0.9,0-1.6-0.3-2.1-1s-0.7-1.6-0.7-2.7v-0.3c0-1.1,0.2-2,0.7-2.7s1.2-1,2.1-1c0.7,0,1.3,0.2,1.8,0.7s0.7,1.1,0.7,1.9l0,0h-1.3
		c0-0.5-0.1-0.9-0.3-1.2s-0.5-0.5-0.9-0.5c-0.5,0-0.9,0.3-1.1,0.8s-0.3,1.1-0.3,1.9v0.3c0,0.8,0.1,1.4,0.3,1.9
		S217,376.1,217.6,376.1z"/>
	<path class="st0" d="M225.2,377c-0.1-0.2-0.1-0.4-0.1-0.6s-0.1-0.3-0.1-0.5c-0.2,0.4-0.5,0.7-0.8,0.9s-0.7,0.4-1.1,0.4
		c-0.7,0-1.2-0.2-1.5-0.6s-0.5-0.9-0.5-1.6c0-0.7,0.2-1.2,0.7-1.6s1.2-0.6,2-0.6h1.1v-0.8c0-0.5-0.1-0.8-0.3-1.1s-0.5-0.4-0.9-0.4
		c-0.3,0-0.6,0.1-0.8,0.3s-0.3,0.5-0.3,0.8l-1.3,0l0,0c0-0.6,0.2-1.1,0.7-1.5s1.1-0.7,1.9-0.7c0.7,0,1.3,0.2,1.8,0.6s0.7,1,0.7,1.8
		v3.4c0,0.3,0,0.6,0.1,0.8s0.1,0.5,0.2,0.8H225.2z M223.4,376.1c0.4,0,0.7-0.1,1-0.4s0.5-0.5,0.6-0.9v-1.3h-1.2
		c-0.4,0-0.8,0.1-1,0.4s-0.4,0.6-0.4,1c0,0.3,0.1,0.6,0.2,0.8S223.1,376.1,223.4,376.1z"/>
	<path class="st0" d="M229.4,377H228v-10.7h1.4V377z"/>
	<path class="st0" d="M232.6,367.7h-1.4v-1.3h1.4V367.7z M232.6,377h-1.4v-7.4h1.4V377z"/>
	<path class="st0" d="M235.6,375.9h3.6v1.1H234v-0.9l3.4-5.4h-3.3v-1.1h4.9v0.9L235.6,375.9z"/>
	<path class="st0" d="M244.3,377c-0.1-0.2-0.1-0.4-0.1-0.6c0-0.2-0.1-0.3-0.1-0.5c-0.2,0.4-0.5,0.7-0.8,0.9
		c-0.3,0.2-0.7,0.4-1.1,0.4c-0.7,0-1.2-0.2-1.5-0.6c-0.4-0.4-0.5-0.9-0.5-1.6c0-0.7,0.2-1.2,0.7-1.6c0.5-0.4,1.2-0.6,2-0.6h1.1v-0.8
		c0-0.5-0.1-0.8-0.3-1.1s-0.5-0.4-0.9-0.4c-0.3,0-0.6,0.1-0.8,0.3c-0.2,0.2-0.3,0.5-0.3,0.8l-1.3,0l0,0c0-0.6,0.2-1.1,0.7-1.5
		s1.1-0.7,1.9-0.7c0.7,0,1.3,0.2,1.8,0.6s0.7,1,0.7,1.8v3.4c0,0.3,0,0.6,0.1,0.8s0.1,0.5,0.2,0.8H244.3z M242.5,376.1
		c0.4,0,0.7-0.1,1-0.4s0.5-0.5,0.6-0.9v-1.3h-1.2c-0.4,0-0.8,0.1-1,0.4s-0.4,0.6-0.4,1c0,0.3,0.1,0.6,0.2,0.8
		S242.2,376.1,242.5,376.1z"/>
	<path class="st0" d="M246.8,373.4c0-1.2,0.2-2.1,0.6-2.9s1-1.1,1.8-1.1c0.4,0,0.7,0.1,0.9,0.2s0.5,0.4,0.7,0.7v-4h1.4V377h-1.1
		l-0.1-0.9c-0.2,0.3-0.5,0.6-0.8,0.8s-0.6,0.3-1,0.3c-0.8,0-1.4-0.3-1.8-1c-0.4-0.7-0.6-1.5-0.6-2.6V373.4z M248.2,373.5
		c0,0.8,0.1,1.4,0.3,1.8s0.6,0.7,1.1,0.7c0.3,0,0.6-0.1,0.8-0.2c0.2-0.2,0.4-0.4,0.5-0.7v-3.6c-0.1-0.3-0.3-0.5-0.5-0.7
		s-0.5-0.3-0.8-0.3c-0.5,0-0.9,0.3-1.1,0.8c-0.2,0.5-0.4,1.2-0.4,2.1V373.5z"/>
	<path class="st0" d="M253.7,373.2c0-1.1,0.3-2,0.8-2.7s1.2-1.1,2.1-1.1s1.6,0.4,2.1,1.1c0.5,0.7,0.8,1.6,0.8,2.7v0.2
		c0,1.1-0.3,2-0.8,2.7s-1.2,1-2.1,1c-0.9,0-1.6-0.3-2.2-1s-0.8-1.6-0.8-2.7V373.2z M255.1,373.4c0,0.8,0.1,1.4,0.4,1.9
		c0.3,0.5,0.6,0.8,1.2,0.8c0.5,0,0.9-0.3,1.1-0.8c0.3-0.5,0.4-1.1,0.4-1.9v-0.2c0-0.8-0.1-1.4-0.4-1.9s-0.6-0.8-1.1-0.8
		s-0.9,0.3-1.1,0.8c-0.3,0.5-0.4,1.1-0.4,1.9V373.4z"/>
	<path class="st0" d="M264,370.8l-0.6,0c-0.3,0-0.5,0.1-0.7,0.3c-0.2,0.2-0.3,0.4-0.4,0.7v5.3h-1.4v-7.4h1.3l0.1,1.1
		c0.2-0.4,0.4-0.7,0.6-0.9s0.5-0.3,0.9-0.3c0.1,0,0.2,0,0.2,0c0.1,0,0.1,0,0.2,0.1L264,370.8z"/>
	<path class="st0" d="M268.4,377v-10h2.8c1.1,0,2,0.4,2.6,1.2c0.7,0.8,1,1.8,1,3.1v1.4c0,1.3-0.3,2.3-1,3.1
		c-0.7,0.8-1.6,1.2-2.6,1.2H268.4z M269.8,368.1v7.8h1.4c0.7,0,1.2-0.3,1.6-0.9s0.6-1.4,0.6-2.3v-1.4c0-0.9-0.2-1.7-0.6-2.3
		s-1-0.9-1.6-0.9H269.8z"/>
	<path class="st0" d="M279.1,377.1c-0.9,0-1.6-0.3-2.2-1c-0.5-0.7-0.8-1.6-0.8-2.6v-0.3c0-1.1,0.3-2,0.8-2.7s1.2-1,2-1
		c0.8,0,1.5,0.3,1.9,0.9c0.4,0.6,0.7,1.4,0.7,2.4v0.8h-4c0,0.8,0.1,1.4,0.4,1.8c0.3,0.5,0.7,0.7,1.2,0.7c0.4,0,0.7-0.1,1-0.2
		s0.6-0.3,0.8-0.5l0.5,0.9c-0.2,0.3-0.6,0.5-1,0.6C280,377.1,279.6,377.1,279.1,377.1z M278.9,370.5c-0.4,0-0.7,0.2-1,0.6
		s-0.4,0.9-0.4,1.5h2.6v-0.2c0-0.6-0.1-1-0.3-1.4C279.6,370.7,279.3,370.5,278.9,370.5z"/>
	<path class="st0" d="M290.5,374.5c0-0.5-0.1-0.8-0.4-1.1s-0.7-0.6-1.4-0.8c-0.9-0.3-1.7-0.7-2.2-1.1s-0.8-1.1-0.8-1.8
		c0-0.8,0.3-1.4,0.8-1.9c0.6-0.5,1.3-0.8,2.1-0.8c0.9,0,1.7,0.3,2.2,0.8s0.8,1.3,0.8,2.1l0,0h-1.3c0-0.6-0.2-1.1-0.5-1.4
		s-0.7-0.5-1.2-0.5c-0.5,0-0.9,0.2-1.1,0.5c-0.3,0.3-0.4,0.7-0.4,1.2c0,0.4,0.1,0.8,0.4,1.1s0.8,0.5,1.4,0.8
		c0.9,0.3,1.6,0.7,2.1,1.2s0.7,1.1,0.7,1.9c0,0.8-0.3,1.5-0.8,1.9c-0.6,0.5-1.3,0.7-2.2,0.7c-0.9,0-1.6-0.3-2.3-0.8s-1-1.3-0.9-2.2
		l0,0h1.3c0,0.7,0.2,1.2,0.5,1.5c0.4,0.3,0.8,0.5,1.3,0.5c0.5,0,0.9-0.1,1.2-0.4S290.5,375,290.5,374.5z"/>
	<path class="st0" d="M297.3,375.9c-0.2,0.4-0.5,0.7-0.8,0.9s-0.7,0.3-1.1,0.3c-0.7,0-1.2-0.3-1.6-0.8s-0.6-1.3-0.6-2.4v-4.3h1.4
		v4.3c0,0.8,0.1,1.3,0.3,1.7s0.5,0.5,0.8,0.5c0.3,0,0.6-0.1,0.9-0.2c0.2-0.2,0.4-0.4,0.6-0.7v-5.5h1.4v7.4h-1.2L297.3,375.9z"/>
	<path class="st0" d="M305.8,373.5c0,1.1-0.2,2-0.6,2.6c-0.4,0.7-1,1-1.8,1c-0.4,0-0.8-0.1-1-0.3c-0.3-0.2-0.5-0.4-0.7-0.8l-0.2,0.9
		h-1.1v-10.7h1.4v4.1c0.2-0.3,0.4-0.5,0.7-0.7s0.6-0.2,1-0.2c0.8,0,1.4,0.4,1.8,1.1c0.4,0.7,0.6,1.7,0.6,2.9V373.5z M304.4,373.4
		c0-0.9-0.1-1.5-0.3-2.1s-0.6-0.8-1.1-0.8c-0.3,0-0.6,0.1-0.8,0.3s-0.4,0.4-0.5,0.8v3.5c0.1,0.3,0.3,0.6,0.5,0.7
		c0.2,0.2,0.5,0.3,0.8,0.3c0.5,0,0.9-0.2,1.1-0.7c0.2-0.5,0.3-1.1,0.3-1.9V373.4z"/>
	<path class="st0" d="M309.8,377.1c-0.9,0-1.6-0.3-2.2-1c-0.5-0.7-0.8-1.6-0.8-2.6v-0.3c0-1.1,0.3-2,0.8-2.7s1.2-1,2-1
		c0.8,0,1.5,0.3,1.9,0.9c0.4,0.6,0.7,1.4,0.7,2.4v0.8h-4c0,0.8,0.1,1.4,0.4,1.8c0.3,0.5,0.7,0.7,1.2,0.7c0.4,0,0.7-0.1,1-0.2
		s0.6-0.3,0.8-0.5l0.5,0.9c-0.2,0.3-0.6,0.5-1,0.6C310.7,377.1,310.3,377.1,309.8,377.1z M309.6,370.5c-0.4,0-0.7,0.2-1,0.6
		s-0.4,0.9-0.4,1.5h2.6v-0.2c0-0.6-0.1-1-0.3-1.4C310.4,370.7,310.1,370.5,309.6,370.5z"/>
	<path class="st0" d="M317,375.1c0-0.3-0.1-0.5-0.3-0.7s-0.6-0.4-1.1-0.7c-0.8-0.3-1.3-0.6-1.7-0.9s-0.6-0.8-0.6-1.3
		c0-0.6,0.2-1.1,0.7-1.5c0.5-0.4,1.1-0.6,1.8-0.6c0.8,0,1.4,0.2,1.8,0.7s0.7,1,0.7,1.6l0,0h-1.3c0-0.4-0.1-0.7-0.3-0.9
		c-0.2-0.3-0.5-0.4-0.8-0.4s-0.6,0.1-0.8,0.3c-0.2,0.2-0.3,0.4-0.3,0.7c0,0.3,0.1,0.5,0.3,0.7c0.2,0.2,0.5,0.4,1.1,0.6
		c0.8,0.3,1.4,0.6,1.7,1c0.4,0.4,0.6,0.8,0.6,1.4c0,0.6-0.2,1.1-0.7,1.5c-0.5,0.4-1.1,0.6-1.9,0.6c-0.8,0-1.5-0.2-2-0.7
		c-0.5-0.5-0.7-1-0.7-1.6l0,0h1.3c0,0.5,0.2,0.8,0.4,1c0.3,0.2,0.6,0.3,0.9,0.3c0.4,0,0.7-0.1,0.9-0.3
		C316.9,375.7,317,375.4,317,375.1z"/>
	<path class="st0" d="M321.4,367.8v1.8h1.2v1h-1.2v4.4c0,0.4,0.1,0.7,0.2,0.8c0.1,0.2,0.3,0.2,0.5,0.2c0.1,0,0.2,0,0.2,0
		s0.1,0,0.2-0.1l0.1,1c-0.1,0.1-0.3,0.1-0.4,0.2c-0.2,0-0.3,0.1-0.5,0.1c-0.5,0-0.9-0.2-1.2-0.5s-0.4-0.9-0.4-1.6v-4.4h-1v-1h1v-1.8
		H321.4z"/>
	<path class="st0" d="M327.7,377c-0.1-0.2-0.1-0.4-0.1-0.6c0-0.2-0.1-0.3-0.1-0.5c-0.2,0.4-0.5,0.7-0.8,0.9
		c-0.3,0.2-0.7,0.4-1.1,0.4c-0.7,0-1.2-0.2-1.5-0.6c-0.4-0.4-0.5-0.9-0.5-1.6c0-0.7,0.2-1.2,0.7-1.6c0.5-0.4,1.2-0.6,2-0.6h1.1v-0.8
		c0-0.5-0.1-0.8-0.3-1.1s-0.5-0.4-0.9-0.4c-0.3,0-0.6,0.1-0.8,0.3c-0.2,0.2-0.3,0.5-0.3,0.8l-1.3,0l0,0c0-0.6,0.2-1.1,0.7-1.5
		s1.1-0.7,1.9-0.7c0.7,0,1.3,0.2,1.8,0.6s0.7,1,0.7,1.8v3.4c0,0.3,0,0.6,0.1,0.8s0.1,0.5,0.2,0.8H327.7z M325.9,376.1
		c0.4,0,0.7-0.1,1-0.4s0.5-0.5,0.6-0.9v-1.3h-1.2c-0.4,0-0.8,0.1-1,0.4s-0.4,0.6-0.4,1c0,0.3,0.1,0.6,0.2,0.8
		S325.6,376.1,325.9,376.1z"/>
	<path class="st0" d="M333,376.1c0.3,0,0.6-0.1,0.9-0.4c0.2-0.3,0.3-0.6,0.3-1.1h1.3l0,0c0,0.7-0.2,1.3-0.7,1.8s-1.1,0.7-1.8,0.7
		c-0.9,0-1.6-0.3-2.1-1s-0.7-1.6-0.7-2.7v-0.3c0-1.1,0.2-2,0.7-2.7s1.2-1,2.1-1c0.7,0,1.3,0.2,1.8,0.7c0.5,0.5,0.7,1.1,0.7,1.9l0,0
		h-1.3c0-0.5-0.1-0.9-0.3-1.2c-0.2-0.3-0.5-0.5-0.9-0.5c-0.5,0-0.9,0.3-1.1,0.8c-0.2,0.5-0.3,1.1-0.3,1.9v0.3c0,0.8,0.1,1.4,0.3,1.9
		S332.5,376.1,333,376.1z"/>
	<path class="st0" d="M338.3,367.7h-1.4v-1.3h1.4V367.7z M338.3,377h-1.4v-7.4h1.4V377z"/>
	<path class="st0" d="M339.7,373.2c0-1.1,0.3-2,0.8-2.7s1.2-1.1,2.1-1.1s1.6,0.4,2.1,1.1c0.5,0.7,0.8,1.6,0.8,2.7v0.2
		c0,1.1-0.3,2-0.8,2.7s-1.2,1-2.1,1c-0.9,0-1.6-0.3-2.2-1s-0.8-1.6-0.8-2.7V373.2z M341.1,373.4c0,0.8,0.1,1.4,0.4,1.9
		c0.3,0.5,0.6,0.8,1.2,0.8c0.5,0,0.9-0.3,1.1-0.8c0.3-0.5,0.4-1.1,0.4-1.9v-0.2c0-0.8-0.1-1.4-0.4-1.9s-0.6-0.8-1.1-0.8
		s-0.9,0.3-1.1,0.8c-0.3,0.5-0.4,1.1-0.4,1.9V373.4z"/>
	<path class="st0" d="M348.1,369.6l0.1,1.1c0.2-0.4,0.5-0.7,0.8-0.9s0.7-0.3,1.1-0.3c0.7,0,1.2,0.2,1.5,0.7c0.4,0.5,0.5,1.2,0.5,2.3
		v4.6h-1.4v-4.5c0-0.7-0.1-1.2-0.3-1.5c-0.2-0.3-0.5-0.4-0.9-0.4c-0.3,0-0.6,0.1-0.8,0.2s-0.4,0.4-0.5,0.7v5.5h-1.4v-7.4H348.1z"/>
	<path class="st0" d="M356.4,377.1c-0.9,0-1.6-0.3-2.2-1c-0.5-0.7-0.8-1.6-0.8-2.6v-0.3c0-1.1,0.3-2,0.8-2.7s1.2-1,2-1
		c0.8,0,1.5,0.3,1.9,0.9c0.4,0.6,0.7,1.4,0.7,2.4v0.8h-4c0,0.8,0.1,1.4,0.4,1.8c0.3,0.5,0.7,0.7,1.2,0.7c0.4,0,0.7-0.1,1-0.2
		s0.6-0.3,0.8-0.5l0.5,0.9c-0.2,0.3-0.6,0.5-1,0.6C357.4,377.1,356.9,377.1,356.4,377.1z M356.3,370.5c-0.4,0-0.7,0.2-1,0.6
		s-0.4,0.9-0.4,1.5h2.6v-0.2c0-0.6-0.1-1-0.3-1.4C357,370.7,356.7,370.5,356.3,370.5z"/>
	<path class="st0" d="M363.6,375.1c0-0.3-0.1-0.5-0.3-0.7s-0.6-0.4-1.1-0.7c-0.8-0.3-1.3-0.6-1.7-0.9s-0.6-0.8-0.6-1.3
		c0-0.6,0.2-1.1,0.7-1.5c0.5-0.4,1.1-0.6,1.8-0.6c0.8,0,1.4,0.2,1.8,0.7s0.7,1,0.7,1.6l0,0h-1.3c0-0.4-0.1-0.7-0.3-0.9
		c-0.2-0.3-0.5-0.4-0.8-0.4s-0.6,0.1-0.8,0.3c-0.2,0.2-0.3,0.4-0.3,0.7c0,0.3,0.1,0.5,0.3,0.7c0.2,0.2,0.5,0.4,1.1,0.6
		c0.8,0.3,1.4,0.6,1.7,1c0.4,0.4,0.6,0.8,0.6,1.4c0,0.6-0.2,1.1-0.7,1.5c-0.5,0.4-1.1,0.6-1.9,0.6c-0.8,0-1.5-0.2-2-0.7
		c-0.5-0.5-0.7-1-0.7-1.6l0,0h1.3c0,0.5,0.2,0.8,0.4,1c0.3,0.2,0.6,0.3,0.9,0.3c0.4,0,0.7-0.1,0.9-0.3
		C363.5,375.7,363.6,375.4,363.6,375.1z"/>
	<path class="st0" d="M374.3,372.4h-3.4v3.6h4v1.1h-5.4v-10h5.3v1.1h-3.9v3.2h3.4V372.4z"/>
	<path class="st0" d="M377.6,377h-1.4v-10.7h1.4V377z"/>
	<path class="st0" d="M382,377.1c-0.9,0-1.6-0.3-2.2-1c-0.5-0.7-0.8-1.6-0.8-2.6v-0.3c0-1.1,0.3-2,0.8-2.7s1.2-1,2-1
		c0.8,0,1.5,0.3,1.9,0.9c0.4,0.6,0.7,1.4,0.7,2.4v0.8h-4c0,0.8,0.1,1.4,0.4,1.8c0.3,0.5,0.7,0.7,1.2,0.7c0.4,0,0.7-0.1,1-0.2
		s0.6-0.3,0.8-0.5l0.5,0.9c-0.2,0.3-0.6,0.5-1,0.6C383,377.1,382.5,377.1,382,377.1z M381.8,370.5c-0.4,0-0.7,0.2-1,0.6
		s-0.4,0.9-0.4,1.5h2.6v-0.2c0-0.6-0.1-1-0.3-1.4C382.6,370.7,382.3,370.5,381.8,370.5z"/>
	<path class="st0" d="M388.3,376.1c0.3,0,0.6-0.1,0.9-0.4c0.2-0.3,0.3-0.6,0.3-1.1h1.3l0,0c0,0.7-0.2,1.3-0.7,1.8s-1.1,0.7-1.8,0.7
		c-0.9,0-1.6-0.3-2.1-1s-0.7-1.6-0.7-2.7v-0.3c0-1.1,0.2-2,0.7-2.7s1.2-1,2.1-1c0.7,0,1.3,0.2,1.8,0.7c0.5,0.5,0.7,1.1,0.7,1.9l0,0
		h-1.3c0-0.5-0.1-0.9-0.3-1.2c-0.2-0.3-0.5-0.5-0.9-0.5c-0.5,0-0.9,0.3-1.1,0.8c-0.2,0.5-0.3,1.1-0.3,1.9v0.3c0,0.8,0.1,1.4,0.3,1.9
		S387.7,376.1,388.3,376.1z"/>
	<path class="st0" d="M393.8,367.8v1.8h1.2v1h-1.2v4.4c0,0.4,0.1,0.7,0.2,0.8c0.1,0.2,0.3,0.2,0.5,0.2c0.1,0,0.2,0,0.2,0
		s0.1,0,0.2-0.1l0.1,1c-0.1,0.1-0.3,0.1-0.4,0.2c-0.2,0-0.3,0.1-0.5,0.1c-0.5,0-0.9-0.2-1.2-0.5s-0.4-0.9-0.4-1.6v-4.4h-1v-1h1v-1.8
		H393.8z"/>
	<path class="st0" d="M399.4,370.8l-0.6,0c-0.3,0-0.5,0.1-0.7,0.3c-0.2,0.2-0.3,0.4-0.4,0.7v5.3h-1.4v-7.4h1.3l0.1,1.1
		c0.2-0.4,0.4-0.7,0.6-0.9s0.5-0.3,0.9-0.3c0.1,0,0.2,0,0.2,0c0.1,0,0.1,0,0.2,0.1L399.4,370.8z"/>
	<path class="st0" d="M402,367.7h-1.4v-1.3h1.4V367.7z M402,377h-1.4v-7.4h1.4V377z"/>
	<path class="st0" d="M406.3,376.1c0.3,0,0.6-0.1,0.9-0.4c0.2-0.3,0.3-0.6,0.3-1.1h1.3l0,0c0,0.7-0.2,1.3-0.7,1.8s-1.1,0.7-1.8,0.7
		c-0.9,0-1.6-0.3-2.1-1s-0.7-1.6-0.7-2.7v-0.3c0-1.1,0.2-2,0.7-2.7s1.2-1,2.1-1c0.7,0,1.3,0.2,1.8,0.7c0.5,0.5,0.7,1.1,0.7,1.9l0,0
		h-1.3c0-0.5-0.1-0.9-0.3-1.2c-0.2-0.3-0.5-0.5-0.9-0.5c-0.5,0-0.9,0.3-1.1,0.8c-0.2,0.5-0.3,1.1-0.3,1.9v0.3c0,0.8,0.1,1.4,0.3,1.9
		S405.7,376.1,406.3,376.1z"/>
	<path class="st0" d="M413.9,377c-0.1-0.2-0.1-0.4-0.1-0.6c0-0.2-0.1-0.3-0.1-0.5c-0.2,0.4-0.5,0.7-0.8,0.9
		c-0.3,0.2-0.7,0.4-1.1,0.4c-0.7,0-1.2-0.2-1.5-0.6c-0.4-0.4-0.5-0.9-0.5-1.6c0-0.7,0.2-1.2,0.7-1.6c0.5-0.4,1.2-0.6,2-0.6h1.1v-0.8
		c0-0.5-0.1-0.8-0.3-1.1s-0.5-0.4-0.9-0.4c-0.3,0-0.6,0.1-0.8,0.3c-0.2,0.2-0.3,0.5-0.3,0.8l-1.3,0l0,0c0-0.6,0.2-1.1,0.7-1.5
		s1.1-0.7,1.9-0.7c0.7,0,1.3,0.2,1.8,0.6s0.7,1,0.7,1.8v3.4c0,0.3,0,0.6,0.1,0.8s0.1,0.5,0.2,0.8H413.9z M412.1,376.1
		c0.4,0,0.7-0.1,1-0.4s0.5-0.5,0.6-0.9v-1.3h-1.2c-0.4,0-0.8,0.1-1,0.4s-0.4,0.6-0.4,1c0,0.3,0.1,0.6,0.2,0.8
		S411.8,376.1,412.1,376.1z"/>
	<path class="st0" d="M420.2,375.1c0-0.3-0.1-0.5-0.3-0.7s-0.6-0.4-1.1-0.7c-0.8-0.3-1.3-0.6-1.7-0.9s-0.6-0.8-0.6-1.3
		c0-0.6,0.2-1.1,0.7-1.5c0.5-0.4,1.1-0.6,1.8-0.6c0.8,0,1.4,0.2,1.8,0.7s0.7,1,0.7,1.6l0,0h-1.3c0-0.4-0.1-0.7-0.3-0.9
		c-0.2-0.3-0.5-0.4-0.8-0.4s-0.6,0.1-0.8,0.3c-0.2,0.2-0.3,0.4-0.3,0.7c0,0.3,0.1,0.5,0.3,0.7c0.2,0.2,0.5,0.4,1.1,0.6
		c0.8,0.3,1.4,0.6,1.7,1c0.4,0.4,0.6,0.8,0.6,1.4c0,0.6-0.2,1.1-0.7,1.5c-0.5,0.4-1.1,0.6-1.9,0.6c-0.8,0-1.5-0.2-2-0.7
		c-0.5-0.5-0.7-1-0.7-1.6l0,0h1.3c0,0.5,0.2,0.8,0.4,1c0.3,0.2,0.6,0.3,0.9,0.3c0.4,0,0.7-0.1,0.9-0.3
		C420.1,375.7,420.2,375.4,420.2,375.1z"/>
</g>
</svg>
